<svg width="203" height="230" viewBox="0 0 203 230" fill="none" xmlns="http://www.w3.org/2000/svg">
<path id="Vector" d="M106.903 1.3084C105.131 0.451172 103.233 0 101.25 0C99.2674 0 97.3689 0.451172 95.5971 1.3084L16.158 37.357C6.87675 41.5529 -0.0419956 51.3434 0.00019189 63.1641C0.211129 107.92 17.4236 189.808 90.1127 227.03C97.158 230.639 105.342 230.639 112.388 227.03C185.077 189.808 202.289 107.92 202.5 63.1641C202.542 51.3434 195.624 41.5529 186.342 37.357L106.903 1.3084ZM54.0002 99.8443C54.0002 84.5947 65.5596 72.1875 79.8611 72.1875C86.6955 72.1875 93.2768 75.1201 98.1283 80.2635L101.25 83.6022L104.372 80.2635C109.224 75.075 115.805 72.1875 122.639 72.1875C136.899 72.1875 148.5 84.5496 148.5 99.8443C148.5 107.153 145.758 114.192 140.949 119.38L106.06 156.692C103.444 159.489 99.1408 159.489 96.5252 156.692L61.6361 119.38C56.7846 114.192 54.0846 107.153 54.0846 99.8443H54.0002Z" fill="#5C8D89"/>
</svg>
