<svg width="216" height="231" viewBox="0 0 216 231" fill="none" xmlns="http://www.w3.org/2000/svg">
<g id="Frame">
<path d="M216 231H0V0H216V231Z" stroke="#E5E7EB"/>
<path id="Vector" d="M113.653 1.3084C111.881 0.451172 109.983 0 108 0C106.017 0 104.119 0.451172 102.347 1.3084L22.9078 37.357C13.6265 41.5529 6.70776 51.3434 6.74995 63.1641C6.96089 107.92 24.1734 189.808 96.8625 227.03C103.908 230.639 112.092 230.639 119.137 227.03C191.827 189.808 209.039 107.92 209.25 63.1641C209.292 51.3434 202.373 41.5529 193.092 37.357L113.653 1.3084ZM60.7499 99.8443C60.7499 84.5947 72.3093 72.1875 86.6109 72.1875C93.4453 72.1875 100.027 75.1201 104.878 80.2635L108 83.6022L111.122 80.2635C115.973 75.075 122.555 72.1875 129.389 72.1875C143.648 72.1875 155.25 84.5496 155.25 99.8443C155.25 107.153 152.508 114.192 147.698 119.38L112.809 156.692C110.194 159.489 105.891 159.489 103.275 156.692L68.3859 119.38C63.5343 114.192 60.8343 107.153 60.8343 99.8443H60.7499Z" fill="#5C8D89"/>
</g>
</svg>
