<svg width="25" height="24" viewBox="0 0 25 24" fill="none" xmlns="http://www.w3.org/2000/svg">
<g clip-path="url(#clip0_2053_42)">
<path d="M11.0297 21.9891L2.55937 14.0813C2.3625 13.8984 2.175 13.7016 2.00156 13.5H6.07969C7.13906 13.5 8.09531 12.8625 8.50312 11.8828L8.99531 10.7016L11.3062 15.8344C11.4844 16.2328 11.8734 16.4906 12.3094 16.4953C12.7453 16.5 13.1438 16.2609 13.3406 15.8719L15.3281 11.8922L15.4078 12.0516C15.8531 12.9422 16.7625 13.5047 17.7562 13.5047H22.6547C22.4812 13.7063 22.2937 13.9031 22.0969 14.0859L13.6266 21.9891C13.275 22.3172 12.8109 22.5 12.3281 22.5C11.8453 22.5 11.3813 22.3172 11.0297 21.9891ZM23.9391 11.25H17.7516C17.6109 11.25 17.4797 11.1703 17.4141 11.0438L16.3266 8.87344C16.1344 8.49376 15.7453 8.25001 15.3187 8.25001C14.8922 8.25001 14.5031 8.48907 14.3109 8.87344L12.3703 12.7547L9.97969 7.41563C9.79688 7.00782 9.38437 6.74532 8.93906 6.75469C8.49375 6.76407 8.09062 7.03126 7.91719 7.44844L6.42656 11.025C6.37031 11.1656 6.22969 11.2547 6.07969 11.2547H1.07812C0.95625 11.2547 0.84375 11.2734 0.735937 11.3063C0.46875 10.5563 0.328125 9.75938 0.328125 8.94844V8.67657C0.328125 5.40001 2.69531 2.60626 5.925 2.06719C8.0625 1.71094 10.2375 2.40938 11.7656 3.93751L12.3281 4.50001L12.8906 3.93751C14.4187 2.40938 16.5938 1.71094 18.7313 2.06719C21.9609 2.60626 24.3281 5.40001 24.3281 8.67657V8.94844C24.3281 9.74063 24.1969 10.5188 23.9391 11.25Z" fill="white"/>
</g>
<defs>
<clipPath id="clip0_2053_42">
<path d="M0.328125 0H24.3281V24H0.328125V0Z" fill="white"/>
</clipPath>
</defs>
</svg>
