<svg width="25" height="24" viewBox="0 0 25 24" fill="none" xmlns="http://www.w3.org/2000/svg">
<path d="M12.6563 0C12.8719 0 13.0875 0.046875 13.2844 0.135938L22.111 3.88125C23.1422 4.31719 23.911 5.33438 23.9063 6.5625C23.8828 11.2125 21.9703 19.7203 13.8938 23.5875C13.111 23.9625 12.2016 23.9625 11.4188 23.5875C3.34221 19.7203 1.42971 11.2125 1.40627 6.5625C1.40158 5.33438 2.17033 4.31719 3.20158 3.88125L12.0328 0.135938C12.225 0.046875 12.4406 0 12.6563 0ZM12.6563 3.13125V20.85C19.125 17.7188 20.8641 10.7859 20.9063 6.62813L12.6563 3.13125Z" fill="white"/>
</svg>
